<?xml version="1.0" standalone="no"?>
<!DOCTYPE svg PUBLIC "-//W3C//DTD SVG 20010904//EN"
 "http://www.w3.org/TR/2001/REC-SVG-20010904/DTD/svg10.dtd">
<svg version="1.0" xmlns="http://www.w3.org/2000/svg"
 width="98.000000pt" height="98.000000pt" viewBox="0 0 98.000000 98.000000"
 preserveAspectRatio="xMidYMid meet">

<g transform="translate(0.000000,98.000000) scale(0.100000,-0.100000)"
fill="#000000" stroke="none">
<path d="M139 781 c-22 -18 -24 -29 -29 -128 -5 -100 -7 -109 -27 -118 -19 -8
-23 -18 -23 -52 0 -39 2 -43 33 -51 25 -6 33 -14 35 -35 2 -19 -1 -27 -12 -27
-9 0 -16 -9 -16 -20 0 -11 7 -20 15 -20 11 0 15 -13 15 -54 0 -69 28 -107 80
-109 34 -2 35 0 38 36 2 20 -1 37 -7 37 -19 0 -41 32 -41 61 0 16 -4 29 -10
29 -5 0 -10 9 -10 20 0 11 7 20 15 20 31 0 15 45 -37 100 -13 15 -14 19 -3 24
21 8 37 81 29 131 -8 58 1 91 26 98 15 4 20 13 20 41 0 34 -2 36 -34 36 -19 0
-44 -9 -57 -19z"/>
<path d="M760 761 c0 -30 4 -40 19 -44 17 -4 19 -16 23 -107 2 -80 7 -104 19
-114 15 -11 15 -14 -3 -36 -12 -15 -15 -26 -9 -28 17 -6 14 -62 -4 -62 -8 0
-15 -9 -15 -20 0 -11 7 -20 15 -20 11 0 15 -11 15 -36 0 -27 -5 -37 -20 -41
-16 -4 -20 -14 -20 -50 l0 -45 32 6 c17 3 40 14 50 23 34 30 52 143 23 143 -8
0 -15 9 -15 20 0 11 4 20 10 20 5 0 12 16 16 35 3 20 12 35 20 35 10 0 14 13
14 45 0 38 -3 45 -19 45 -29 0 -32 11 -34 119 -2 90 -4 102 -26 125 -17 18
-35 26 -58 26 -32 0 -33 -2 -33 -39z"/>
<path d="M567 702 c-12 -13 -17 -37 -17 -80 l0 -62 -54 0 c-49 0 -54 2 -60 24
-9 37 -34 56 -70 56 -54 0 -66 -23 -66 -123 0 -48 4 -87 9 -87 5 0 11 -13 13
-30 3 -21 0 -30 -10 -30 -9 0 -12 -6 -8 -16 3 -9 6 -18 6 -20 0 -2 7 -4 16 -4
9 0 34 -15 55 -34 64 -54 148 -66 219 -31 29 15 64 51 66 68 3 33 5 37 18 37
15 0 29 53 15 58 -5 2 -9 57 -9 121 0 105 -2 121 -21 145 -25 32 -77 36 -102
8z m71 -147 c1 -68 7 -122 13 -126 14 -8 0 -59 -16 -59 -12 0 -30 -27 -27 -42
2 -12 -66 -38 -100 -38 -18 0 -48 9 -66 20 -18 11 -40 20 -50 20 -19 0 -42 18
-42 32 0 4 7 8 14 8 12 0 13 6 5 30 -6 17 -15 30 -20 30 -5 0 -9 33 -9 74 0
54 4 77 15 86 25 20 34 1 37 -75 3 -62 5 -70 23 -70 15 0 21 8 23 33 5 46 32
43 32 -3 0 -28 4 -35 20 -35 16 0 20 7 20 35 0 28 4 35 20 35 16 0 20 -7 20
-35 0 -28 4 -35 20 -35 19 0 20 7 20 108 0 105 9 137 35 129 6 -2 11 -52 13
-122z"/>
</g>
</svg>
